<svg xmlns="http://www.w3.org/2000/svg" xmlns:xlink="http://www.w3.org/1999/xlink" width="72" height="24" viewBox="0 0 72 24"><defs><clipPath id="a"><path d="M0,0H6.678V24H0Z" fill="none"/></clipPath><clipPath id="b"><path d="M0,0H39.748V23.664H0Z" fill="none"/></clipPath><clipPath id="c"><path d="M0,0H19.632V14.924H0Z" fill="none"/></clipPath></defs><g transform="translate(23.104 0)"><path d="M0,0H6.678V24H0Z" transform="translate(0)" fill="none"/><g transform="translate(0)" clip-path="url(#a)"><path d="M3.339,0A3.35,3.35,0,0,0,0,3.361V20.639a3.339,3.339,0,1,0,6.678,0V3.361A3.35,3.35,0,0,0,3.339,0" transform="translate(0 0)" fill="#001d42"/></g></g><path d="M17.9,0H3.339a3.362,3.362,0,0,0,0,6.723H17.9A3.362,3.362,0,0,0,17.9,0" transform="translate(0 0.235)" fill="#e21836"/><g transform="translate(32.252)"><path d="M0,0H39.748V23.664H0Z" transform="translate(0)" fill="none"/><g transform="translate(0)" clip-path="url(#b)"><path d="M37.875,13.578,30.84,2.046A3.78,3.78,0,0,0,27.465.06a3.93,3.93,0,0,0-3.486,1.986L15.831,15.637a2.352,2.352,0,0,1-2.259,1.318H7.515a.828.828,0,0,1-.853-.858V3.248A3.254,3.254,0,0,0,3.331,0,3.255,3.255,0,0,0,0,3.25V19a4.976,4.976,0,0,0,4.632,4.664H16.825c1.73,0,2.89-1.271,3.878-3.009L27.043,9.7c.056-.12.161-.276.281-.276s.209.156.273.268l4.152,6.7a.623.623,0,0,1,.094.681c-.1.231-.324.279-.69.279h-5.8l-.028,0a3.154,3.154,0,0,0,0,6.307h9.508a5.247,5.247,0,0,0,4.915-5.113c0-1.835-.351-2.482-1.873-4.973" fill="#001d42"/></g></g><g transform="translate(0 8.841)"><path d="M0,0H19.632V14.924H0Z" transform="translate(0 0)" fill="none"/><g transform="translate(0 0)" clip-path="url(#c)"><path d="M16.293,0H3.339A3.35,3.35,0,0,0,0,3.361v8.2a3.339,3.339,0,1,0,6.678,0V7.731a1,1,0,0,1,1-1.008h8.614a3.361,3.361,0,0,0,0-6.723" transform="translate(0)" fill="#001d42"/></g></g></svg>